<svg xmlns="http://www.w3.org/2000/svg" viewBox="0 0 165 247">
  <path fill="#FFF" d="M144.5,77.3A41.2,41.2,0,0,0,165,83V41.5A41.487,41.487,0,0,0,123.5,0h-82A41.5,41.5,0,0,0,0,41.5c0,.29,0,.59.01.88L25,75.54v97.22a40.483,40.483,0,0,0-4.5-3.06A41.2,41.2,0,0,0,0,164v41.5a41.395,41.395,0,0,0,20.5,35.8,41.228,41.228,0,0,0,21,5.7h82A41.511,41.511,0,0,0,165,205.5c0-.22,0-.45-.01-.67L141,172.99v-98A39.179,39.179,0,0,0,144.5,77.3ZM40.52,207c.16-.14.31-.28.47-.41A41.429,41.429,0,0,0,55,175.5V115.35l43.16,57.29L111,189.67,124.06,207ZM124.01,40.33A41.362,41.362,0,0,0,111,70.5v62.68L66.74,74.44,55,58.87,40.78,40h83.58C124.24,40.11,124.13,40.22,124.01,40.33Z" />
</svg>
