<svg xmlns="http://www.w3.org/2000/svg" width="512" height="512" viewBox="-21 -35 682.667 682">
	<path fill="#000" d="M77.613-.668C30.683-.668 0 30.148 0 70.652c0 39.61 29.77 71.305 75.813 71.305h.89c47.848 0 77.625-31.695 77.625-71.305-.894-40.504-29.777-71.32-76.715-71.32zm0 0M8.11 198.313h137.195V611.07H8.109zm0 0M482.055 188.625c-74.012 0-123.64 69.547-123.64 69.547v-59.86h-137.2V611.07h137.191v-230.5c0-12.34.895-24.66 4.52-33.484 9.918-24.64 32.488-50.168 70.39-50.168 49.645 0 69.5 37.852 69.5 93.34V611.07H640V374.402c0-126.78-67.688-185.777-157.945-185.777zm0 0"/>
</svg>