<?xml version="1.0" encoding="UTF-8"?>
<svg width="850px" height="560px" viewBox="0 0 1700 1120" version="1.1" xmlns="http://www.w3.org/2000/svg" xmlns:xlink="http://www.w3.org/1999/xlink">
	<title>Group 2</title>
	<desc>Created with Sketch.</desc>
	<defs>
		<linearGradient x1="69.5529935%" y1="0%" x2="50%" y2="100%" id="linearGradient-1">
			<stop stop-color="#00AFE3" offset="0%"></stop>
			<stop stop-color="#0094D5" offset="100%"></stop>
		</linearGradient>
		<linearGradient x1="50%" y1="0%" x2="50%" y2="100%" id="linearGradient-2">
			<stop stop-color="#FCFDFF" offset="0%"></stop>
			<stop stop-color="#E5F4FA" offset="100%"></stop>
		</linearGradient>
		<path d="M811.140174,1062.28842 C812.492002,1060.58434 813.853472,1058.92854 815.224614,1057.321 C816.035072,1056.33687 816.859989,1055.36723 817.699392,1054.41205 C818.538794,1053.45687 819.421601,1052.54512 820.347838,1051.67677 C820.753067,1051.27154 821.172762,1050.86632 821.606936,1050.46109 C822.04111,1050.05586 822.547638,1049.8243 823.126537,1049.76641 C824.110664,1049.76641 824.892165,1050.14269 825.471063,1050.89526 C826.049961,1051.64783 826.397295,1052.42933 826.513075,1053.23979 C826.513075,1053.70291 826.440714,1054.06471 826.295989,1054.32522 C826.151264,1054.58572 825.934181,1054.88964 825.644732,1055.23698 C823.734367,1057.26312 821.88192,1059.26029 820.087335,1061.22854 C818.292751,1063.1968 816.613971,1065.2808 815.050945,1067.48061 C813.951038,1068.98575 813.169537,1070.28825 812.706419,1071.38816 C812.2433,1072.48807 812.098578,1073.26957 812.272247,1073.73269 C812.445917,1074.1958 812.952445,1074.25369 813.791848,1073.90635 C814.63125,1073.55902 815.803502,1072.69068 817.308637,1071.30132 C818.119095,1070.54876 819.030846,1069.66595 820.043918,1068.65288 L824.60272,1064.09408 C825.007949,1063.68885 825.398699,1063.26915 825.774983,1062.83498 C825.920629,1062.66693 826.077116,1062.51405 826.244444,1062.37635 C826.707917,1061.34248 827.21716,1060.29415 827.772172,1059.23135 C829.132583,1056.62631 830.623224,1054.0792 832.24414,1051.58994 C833.865055,1049.10067 835.543835,1046.7417 837.28053,1044.51294 C839.017225,1042.28418 840.66706,1040.30148 842.230086,1038.56479 C843.908891,1036.71231 845.674504,1034.90328 847.526979,1033.13764 C849.379454,1031.372 851.405567,1029.88136 853.605381,1028.66568 C854.357949,1028.26045 855.2697,1027.85522 856.340662,1027.45 C857.411624,1027.04477 858.48257,1026.78427 859.553532,1026.66849 C860.624494,1026.55271 861.637551,1026.65401 862.592733,1026.97241 C863.547915,1027.2908 864.343888,1027.971 864.980676,1029.01301 C865.675354,1030.05503 865.950327,1031.16939 865.805602,1032.35613 C865.660878,1033.54288 865.313544,1034.70066 864.763591,1035.82951 C864.213637,1036.95836 863.562386,1038.0293 862.809819,1039.04238 C862.057251,1040.05545 861.391528,1040.93826 860.812629,1041.69082 C860.752229,1041.76372 860.691735,1041.83645 860.631148,1041.90901 C862.324582,1040.01718 864.165175,1038.23671 866.15294,1036.5676 C869.944724,1033.38366 874.069312,1030.86549 878.52683,1029.01301 C883.042237,1027.16054 887.702298,1026.16195 892.507154,1026.01723 C897.31201,1025.8725 902.001017,1026.63953 906.574313,1028.31834 C907.558441,1028.66568 908.528081,1029.05643 909.483263,1029.4906 C910.438445,1029.92478 911.379141,1030.40236 912.305378,1030.92337 C913.173726,1031.44438 913.578948,1032.18246 913.521059,1033.13764 C913.463169,1034.09283 913.202668,1034.94669 912.73955,1035.69926 C912.392211,1036.33604 911.827793,1036.92941 911.046281,1037.47936 C910.264768,1038.02931 909.497739,1038.13062 908.745171,1037.78328 C907.761044,1037.32016 906.791404,1036.85705 905.836222,1036.39393 C904.881039,1035.93081 903.882455,1035.52559 902.840438,1035.17825 C897.919802,1033.55733 893.086073,1033.16658 888.339107,1034.00599 C883.592141,1034.84539 879.134691,1036.5097 874.966623,1038.99896 C870.798555,1041.48822 867.079189,1044.54187 863.808413,1048.15998 C860.537638,1051.77809 857.918162,1055.78691 855.949908,1060.18653 C855.02367,1062.27057 854.329003,1064.52824 853.865884,1066.95961 C853.402765,1069.39098 853.576432,1071.70654 854.38689,1073.90635 C855.197348,1076.10617 856.528794,1077.59681 858.381268,1078.37832 C860.233743,1079.15983 862.201968,1079.31903 864.286002,1078.85591 C866.601595,1078.27701 868.714542,1077.2929 870.624907,1075.90354 C872.535271,1074.51419 874.329829,1073.00907 876.008634,1071.38816 C877.62955,1069.70935 879.235969,1068.00163 880.827939,1066.26493 C882.419909,1064.52824 883.823717,1062.79157 885.039403,1061.05488 C883.650047,1060.9391 882.304129,1060.86673 881.001608,1060.83779 C879.699086,1060.80884 878.512363,1060.82332 877.441401,1060.88121 C876.370439,1060.9391 875.47316,1060.99699 874.749537,1061.05488 C874.025914,1061.11277 873.577274,1061.14171 873.403605,1061.14171 L872.578679,1061.14171 C872.318175,1061.14171 872.043202,1061.05488 871.753753,1060.88121 C870.711736,1060.24442 870.060485,1059.27478 869.799981,1057.97226 C869.539477,1056.66974 869.582893,1055.49748 869.930232,1054.45547 C870.103902,1053.99235 870.335458,1053.55818 870.624907,1053.15295 C870.914356,1052.74772 871.319579,1052.51617 871.840587,1052.45828 C873.635172,1052.16883 875.69023,1052.11094 878.005824,1052.28461 C880.321417,1052.45828 882.694865,1052.7622 885.126238,1053.19637 C887.55761,1053.63054 889.902114,1054.13707 892.159817,1054.71597 C894.417521,1055.29487 896.385745,1055.84481 898.06455,1056.36582 C899.038017,1056.70654 899.786391,1057.11886 900.309689,1057.60281 C901.358955,1056.59272 902.463033,1055.65939 903.621947,1054.8028 C904.953413,1053.81868 906.284859,1052.9214 907.616325,1052.11094 C908.600452,1051.53204 909.787176,1050.9821 911.176532,1050.46109 C912.565888,1049.94008 913.984168,1049.59275 915.431413,1049.41908 C916.878659,1049.24541 918.224578,1049.33224 919.469209,1049.67958 C920.713841,1050.02692 921.683481,1050.77948 922.378159,1051.93727 C923.014947,1052.97929 923.159669,1054.07918 922.81233,1055.23698 C922.464991,1056.39477 922.00188,1057.46572 921.422981,1058.44985 C920.149405,1060.47599 918.528514,1062.28502 916.56026,1063.87699 C914.592005,1065.46896 912.508003,1066.6991 910.308189,1067.56745 C908.629384,1068.20424 906.921659,1068.60946 905.184964,1068.78313 C903.448269,1068.9568 901.769489,1068.72524 900.148574,1068.08845 C899.801235,1068.72524 899.526262,1069.34755 899.323648,1069.95539 C899.121034,1070.56324 899.048672,1071.1566 899.106562,1071.7355 C899.164452,1072.31439 899.367063,1072.84987 899.714402,1073.34193 C900.061741,1073.83399 900.640631,1074.22475 901.451089,1074.51419 C902.898335,1075.0352 904.577115,1074.94837 906.487479,1074.25369 C908.397844,1073.55901 910.293707,1072.60385 912.175127,1071.38816 C914.056546,1070.17247 915.793215,1068.88444 917.385186,1067.52403 C918.977156,1066.16362 920.207296,1065.0782 921.075644,1064.26775 C921.480873,1063.86252 921.900568,1063.41388 922.334742,1062.92181 C922.447769,1062.79372 922.563738,1062.67445 922.68265,1062.564 C922.837686,1062.33316 922.996692,1062.10509 923.159668,1061.8798 C924.143795,1060.51939 925.229213,1059.24583 926.415954,1058.05909 C927.602696,1056.87235 928.861781,1055.78693 930.193247,1054.8028 C931.524713,1053.81868 932.856159,1052.9214 934.187626,1052.11094 C935.171753,1051.53204 936.358476,1050.9821 937.747832,1050.46109 C939.137188,1049.94008 940.555468,1049.59275 942.002714,1049.41908 C943.44996,1049.24541 944.795878,1049.33224 946.04051,1049.67958 C947.285141,1050.02692 948.254781,1050.77948 948.949459,1051.93727 C949.586247,1052.97929 949.73097,1054.07918 949.383631,1055.23698 C949.036292,1056.39477 948.57318,1057.46572 947.994282,1058.44985 C946.720705,1060.47599 945.099814,1062.28502 943.13156,1063.87699 C941.163306,1065.46896 939.079303,1066.6991 936.879489,1067.56745 C935.200684,1068.20424 933.49296,1068.60946 931.756265,1068.78313 C930.01957,1068.9568 928.34079,1068.72524 926.719874,1068.08845 C926.372535,1068.72524 926.097563,1069.34755 925.894948,1069.95539 C925.692334,1070.56324 925.619973,1071.1566 925.677863,1071.7355 C925.735753,1072.31439 925.938364,1072.84987 926.285703,1073.34193 C926.633042,1073.83399 927.211932,1074.22475 928.022389,1074.51419 C929.469635,1075.0352 931.148415,1074.94837 933.058779,1074.25369 C934.969144,1073.55901 936.865008,1072.60385 938.746427,1071.38816 C940.627847,1070.17247 942.364516,1068.88444 943.956486,1067.52403 C945.548456,1066.16362 946.778597,1065.0782 947.646944,1064.26775 C948.052173,1063.86252 948.471868,1063.41388 948.906042,1062.92181 C949.084474,1062.71959 949.270239,1062.53937 949.463336,1062.38114 C953.054865,1057.64905 956.646372,1053.15472 960.23792,1048.89807 C964.926997,1043.34065 969.78967,1037.98592 974.826085,1032.83372 C975.636543,1032.02327 976.418044,1031.25624 977.170612,1030.53261 C977.923179,1029.80899 978.70468,1029.07091 979.515138,1028.31834 C979.862477,1028.02889 980.195339,1027.81181 980.513733,1027.66708 C980.832127,1027.52236 981.222877,1027.53683 981.685996,1027.7105 C982.496454,1027.94206 983.176649,1028.40517 983.726602,1029.09985 C984.276556,1029.79453 984.551528,1030.54708 984.551528,1031.35754 C984.551528,1031.82066 984.392334,1032.19694 984.07394,1032.48639 C983.755546,1032.77583 983.451628,1033.06528 983.162179,1033.35473 C980.904476,1035.38087 978.675751,1037.53724 976.475937,1039.82389 C974.276123,1042.11053 972.134232,1044.45504 970.050198,1046.85746 C967.966164,1049.25989 965.983467,1051.63334 964.102047,1053.97788 C962.220628,1056.32242 960.440542,1058.53667 958.761737,1060.6207 L960.064251,1060.79437 C962.727184,1059.81025 965.086159,1058.44985 967.141248,1056.71316 C969.196337,1054.97646 971.179034,1053.15296 973.089399,1051.2426 C973.263068,1051.01104 973.451207,1050.79395 973.653822,1050.59134 C973.856436,1050.38873 974.102464,1050.22953 974.391913,1050.11375 C974.912922,1049.99797 975.390506,1050.02692 975.82468,1050.20059 C976.258853,1050.37426 976.664076,1050.62028 977.04036,1050.93868 C977.416644,1051.25707 977.749506,1051.61888 978.038955,1052.02411 C978.328404,1052.42934 978.531015,1052.80561 978.646795,1053.15295 C978.820464,1053.67396 978.748103,1054.1226 978.429709,1054.49888 C978.111315,1054.87517 977.778453,1055.26592 977.431114,1055.67115 C975.752309,1057.58151 973.914335,1059.3616 971.917135,1061.01146 C969.919936,1062.66132 967.589905,1063.97829 964.926973,1064.96242 C965.158532,1066.236 965.115116,1067.58191 964.796722,1069.00022 C964.478328,1070.41852 964.029688,1071.6776 963.45079,1072.77751 C963.21923,1073.24063 963.103452,1073.60243 963.103452,1073.86294 C963.103452,1074.12344 963.161341,1074.29711 963.277121,1074.38394 C963.392901,1074.47078 963.537623,1074.51419 963.711293,1074.51419 C963.884962,1074.51419 964.029685,1074.48525 964.145464,1074.42736 C964.955922,1074.08002 965.737423,1073.64585 966.489991,1073.12485 C967.242559,1072.60384 967.966171,1072.05389 968.660849,1071.47499 C970.165984,1070.3172 971.540847,1069.08706 972.785479,1067.78453 C974.03011,1066.48201 975.289195,1065.19398 976.562771,1063.92041 C976.91011,1063.57307 977.271916,1063.18232 977.6482,1062.74814 C978.024484,1062.31397 978.473124,1062.01005 978.994132,1061.83638 C979.920369,1061.48905 980.759759,1061.64824 981.512327,1062.31397 C982.264895,1062.97971 982.525395,1063.80462 982.293836,1064.78875 C982.178056,1065.30976 981.932028,1065.7584 981.555744,1066.13468 C981.179461,1066.51097 980.817655,1066.90172 980.470316,1067.30695 L976.693023,1071.08424 C975.448391,1072.32887 974.160362,1073.53007 972.828896,1074.68786 C971.32376,1075.96144 969.717341,1077.11922 968.009591,1078.16124 C966.301841,1079.20325 964.434922,1079.78214 962.408778,1079.89792 C960.556303,1080.0137 959.022246,1079.55059 957.806559,1078.50857 C956.590873,1077.46656 956.18565,1075.96144 956.590879,1073.99319 C956.764548,1073.00906 957.068465,1072.08284 957.502639,1071.21449 C957.936813,1070.34614 958.385452,1069.47781 958.848571,1068.60946 C959.022241,1068.20423 959.21038,1067.82795 959.412994,1067.48061 C959.615609,1067.13328 959.774803,1066.72805 959.890583,1066.26493 L959.890583,1066.1781 C957.980218,1066.40966 956.098827,1066.58333 954.246352,1066.69911 L954.072684,1066.69911 C953.609565,1067.33589 953.131981,1067.97267 952.639918,1068.60946 C952.147854,1069.24625 951.597909,1069.95539 950.990066,1070.7369 C950.382222,1071.51841 949.730971,1072.40122 949.036293,1073.38535 C948.341615,1074.36948 947.53117,1075.49831 946.604933,1076.77189 C946.315483,1077.11923 946.069455,1077.48103 945.866841,1077.85732 C945.664227,1078.2336 945.331365,1078.47963 944.868246,1078.59541 C944.115678,1078.76908 943.377594,1078.7546 942.653971,1078.55199 C941.930348,1078.34938 941.336986,1077.92968 940.873868,1077.29289 C940.673497,1077.00144 940.529011,1076.71573 940.440407,1076.43575 C939.643561,1076.8897 938.789454,1077.33461 937.878084,1077.77048 C935.880885,1078.72566 933.854771,1079.39139 931.799682,1079.76767 C929.744593,1080.14395 927.761896,1080.12948 925.851531,1079.72425 C923.941167,1079.31902 922.34922,1078.24808 921.075644,1076.51138 C920.167194,1075.26824 919.653654,1073.91652 919.535016,1072.45618 C918.424001,1073.34536 917.40348,1074.11819 916.473425,1074.7747 C915.026179,1075.81671 913.303983,1076.8153 911.306784,1077.77048 C909.309584,1078.72566 907.283471,1079.39139 905.228381,1079.76767 C903.173292,1080.14395 901.190595,1080.12948 899.280231,1079.72425 C897.369866,1079.31902 895.77792,1078.24808 894.504344,1076.51138 C893.404437,1075.00625 892.883436,1073.34194 892.941326,1071.51841 C892.999216,1069.69488 893.375494,1067.94374 894.070172,1066.26493 C894.76485,1064.70191 895.60424,1063.24021 896.588367,1061.8798 C896.656338,1061.78584 896.724791,1061.6923 896.793728,1061.59917 L893.896503,1061.14171 L876.876978,1085.02115 C876.240189,1085.8316 875.559994,1086.19341 874.836371,1086.10658 C874.112748,1086.01974 873.374664,1085.71582 872.622096,1085.19482 C871.869528,1084.78959 871.23275,1084.18175 870.711741,1083.37129 C868.511928,1084.29753 866.225313,1084.87642 863.85183,1085.10798 C861.478347,1085.33954 859.191733,1084.96326 856.991919,1083.97913 C854.965775,1083.16868 853.301468,1081.90959 851.998946,1080.20184 C850.696425,1078.49409 849.784674,1076.62717 849.263665,1074.60103 C848.827286,1072.93485 848.594801,1071.2619 848.566208,1069.58215 C846.580157,1071.51005 844.757574,1073.09617 843.098429,1074.34053 C840.782836,1076.07722 838.727777,1077.35078 836.933193,1078.16124 C835.138608,1078.97169 833.575606,1079.40586 832.24414,1079.46375 C830.912673,1079.52164 829.783839,1079.43481 828.857601,1079.20325 C827.584025,1078.85591 826.556496,1078.29149 825.774983,1077.50998 C824.99347,1076.72847 824.429053,1075.7733 824.081714,1074.64445 C823.855636,1073.90969 823.721529,1073.13203 823.67939,1072.31144 C822.885968,1073.10359 822.064907,1073.89572 821.216182,1074.68786 C819.479487,1076.36667 817.902012,1077.64023 816.483711,1078.50857 C815.065411,1079.37692 813.57477,1079.84003 812.011744,1079.89792 C810.911837,1079.95581 809.869836,1079.76767 808.885709,1079.3335 C807.901582,1078.89933 807.149025,1078.19019 806.628017,1077.20606 C806.191145,1076.49118 805.924569,1075.73543 805.828287,1074.93881 C804.73346,1075.95174 803.538334,1076.95351 802.242884,1077.94415 C800.766693,1079.073 799.073441,1079.72425 797.163076,1079.89792 C795.77372,1080.0137 794.558052,1079.84003 793.516035,1079.37692 C792.474018,1078.9138 791.663573,1078.19019 791.084674,1077.20606 C790.737335,1076.62716 790.505779,1075.8746 790.39,1074.94837 C789.579542,1075.64304 788.769097,1076.27982 787.958639,1076.85872 C787.148181,1077.43762 786.308791,1077.98756 785.440444,1078.50857 C784.051088,1079.26114 782.618336,1079.72425 781.142145,1079.89792 C779.665954,1080.07159 778.262147,1079.81109 776.930681,1079.11641 C775.714994,1078.47962 774.919021,1077.58235 774.542737,1076.42455 C774.166453,1075.26675 774.036203,1074.03661 774.151983,1072.73409 C774.267762,1071.43157 774.586152,1070.15801 775.10716,1068.91338 C775.628169,1067.66875 776.149169,1066.64122 776.670178,1065.83076 C778.522653,1062.99416 780.650072,1060.33127 783.0525,1057.84201 C785.454928,1055.35274 788.132293,1053.26874 791.084674,1051.58994 C792.41614,1050.89526 793.791003,1050.3019 795.209304,1049.80983 C796.627605,1049.31777 798.089301,1049.12963 799.594437,1049.24541 C801.91003,1049.41908 803.617755,1050.28741 804.717662,1051.85044 C805.065001,1051.38732 805.51364,1050.93868 806.063594,1050.50451 C806.613547,1050.07033 807.120075,1049.8243 807.583194,1049.76641 C808.451542,1049.76641 809.233043,1050.11375 809.927721,1050.80843 C810.564509,1051.44521 810.911843,1052.1833 810.969732,1053.0227 C811.027622,1053.8621 810.767122,1054.60019 810.188224,1055.23698 C809.377766,1056.10532 808.538376,1056.95919 807.670028,1057.79859 C806.801681,1058.63799 805.962291,1059.54974 805.151833,1060.53387 C803.241469,1062.79157 801.663995,1064.71638 800.419363,1066.30835 C799.174732,1067.90032 798.118258,1069.53569 797.249911,1071.21449 C796.960461,1071.67761 796.743378,1072.16967 796.598653,1072.69067 C796.453929,1073.21168 796.39604,1073.64585 796.424985,1073.99319 C796.45393,1074.34053 796.613124,1074.58656 796.902573,1074.73128 C797.192023,1074.876 797.655134,1074.7747 798.291922,1074.42736 C799.04449,1074.02213 799.739158,1073.54455 800.375946,1072.99459 C801.012734,1072.44464 801.649513,1071.85128 802.286301,1071.21449 L809.493549,1064.00724 C809.840888,1063.6599 810.202694,1063.26915 810.578978,1062.83498 C810.756393,1062.63027 810.943458,1062.44808 811.140174,1062.28842 L811.140174,1062.28842 Z M932.277271,1063.6599 C934.419194,1063.31257 936.387419,1062.50212 938.182004,1061.22854 C939.976589,1059.95497 941.481702,1058.59458 942.697388,1057.14733 C943.160507,1056.62632 943.493369,1056.07638 943.695983,1055.49748 C943.898597,1054.91858 943.855181,1054.5423 943.565732,1054.36863 C942.060596,1054.77386 940.642316,1055.35275 939.31085,1056.10532 C937.979384,1056.85789 936.705827,1057.69728 935.49014,1058.62351 C933.406106,1060.12865 931.582604,1061.80743 930.019578,1063.6599 C930.714256,1063.77568 931.466813,1063.77568 932.277271,1063.6599 Z M843.185263,1051.41627 C845.558746,1049.56379 847.845361,1047.63898 850.045174,1045.64178 C852.244988,1043.64459 854.328991,1041.48822 856.297245,1039.17263 C857.107703,1038.1885 857.874731,1037.21886 858.598354,1036.26368 C859.321977,1035.3085 859.915339,1034.25202 860.378458,1033.09423 C860.552127,1032.63111 860.50871,1032.38508 860.248206,1032.35613 C859.987702,1032.32719 859.640368,1032.39955 859.206194,1032.57322 C858.772021,1032.74689 858.294437,1032.97845 857.773428,1033.26789 C857.25242,1033.55734 856.847197,1033.81784 856.557748,1034.0494 C854.300044,1035.72821 852.201569,1037.53724 850.26226,1039.47655 C848.322951,1041.41586 846.51392,1043.48539 844.835115,1045.6852 C843.677319,1047.19034 842.548484,1048.69545 841.448577,1050.20059 C840.34867,1051.70572 839.306669,1053.26872 838.322542,1054.88964 C839.132999,1054.31074 839.943445,1053.74632 840.753902,1053.19637 C841.56436,1052.64642 842.374806,1052.05305 843.185263,1051.41627 Z M905.70597,1063.6599 C907.847894,1063.31257 909.816119,1062.50212 911.610704,1061.22854 C913.405288,1059.95497 914.910402,1058.59458 916.126088,1057.14733 C916.589207,1056.62632 916.922068,1056.07638 917.124683,1055.49748 C917.327297,1054.91858 917.28388,1054.5423 916.994431,1054.36863 C915.489296,1054.77386 914.071016,1055.35275 912.73955,1056.10532 C911.408084,1056.85789 910.134526,1057.69728 908.91884,1058.62351 C906.834806,1060.12865 905.011303,1061.80743 903.448278,1063.6599 C904.142956,1063.77568 904.895513,1063.77568 905.70597,1063.6599 Z M792.039852,1058.27618 C789.955818,1059.95498 787.871815,1061.92321 785.787781,1064.18091 C783.703747,1066.43861 782.111801,1068.66734 781.011894,1070.86715 C780.896114,1071.04082 780.736919,1071.34474 780.534305,1071.77891 C780.331691,1072.21309 780.172496,1072.64725 780.056716,1073.08143 C779.940937,1073.5156 779.911992,1073.90635 779.969882,1074.25369 C780.027772,1074.60103 780.288272,1074.7747 780.751391,1074.7747 C782.082857,1074.65892 783.341942,1074.12344 784.528683,1073.16826 C785.715425,1072.21308 786.742954,1071.35922 787.611302,1070.60665 C790.100564,1068.34895 792.387179,1065.98997 794.471213,1063.52965 C796.555247,1061.06934 798.639249,1058.62353 800.723283,1056.19215 C800.839063,1055.03436 800.506201,1054.45547 799.724689,1054.45547 C798.943176,1054.45547 798.031425,1054.68702 796.989408,1055.15014 C795.947391,1055.61326 794.934334,1056.19215 793.950207,1056.88683 C792.966079,1057.58151 792.329301,1058.04462 792.039852,1058.27618 Z M859.257715,1043.50683 C858.059842,1044.86034 856.826994,1046.15088 855.559153,1047.37847 C853.735623,1049.14411 851.83976,1050.86631 849.871506,1052.54511 C848.597929,1053.58713 847.252011,1054.62913 845.83371,1055.67115 C844.415409,1056.71316 842.997129,1057.72622 841.578828,1058.71035 C840.160528,1059.69448 838.742248,1060.60623 837.323947,1061.44563 C835.905646,1062.28503 834.559728,1062.99417 833.286151,1063.57307 C832.823033,1064.15197 832.41781,1064.71639 832.070471,1065.26634 C831.723132,1065.81629 831.404743,1066.35177 831.115294,1066.87277 C830.073277,1068.84103 829.639109,1070.49086 829.812779,1071.82233 C829.986448,1073.1538 830.44956,1073.96424 831.202128,1074.25369 C831.781026,1074.48525 832.605944,1074.39842 833.676906,1073.99319 C834.747868,1073.58796 835.978008,1072.93671 837.367364,1072.03942 C838.75672,1071.14212 840.276306,1069.99882 841.926166,1068.60946 C843.576026,1067.2201 845.298223,1065.62816 847.092807,1063.83357 C847.440146,1063.42834 847.801953,1063.03759 848.178236,1062.66131 C848.55452,1062.28503 849.00316,1062.01005 849.524168,1061.83638 C849.536753,1061.83245 849.549316,1061.8286 849.561858,1061.82483 C849.708106,1061.21806 849.869211,1060.61407 850.045174,1060.01286 C850.739852,1057.75516 851.637131,1055.56985 852.737038,1053.45687 C853.836945,1051.34389 855.052613,1049.30331 856.384079,1047.33505 C857.283453,1046.0147 858.24133,1044.73862 859.257715,1043.50683 L859.257715,1043.50683 Z M832.24414,1043.86168 C831.202123,1043.86168 830.304844,1043.47093 829.552276,1042.68942 C828.799708,1041.90791 828.42343,1041.0251 828.42343,1040.04097 C828.42343,1038.99895 828.799708,1038.10168 829.552276,1037.34911 C830.304844,1036.59654 831.202123,1036.22026 832.24414,1036.22026 C833.228267,1036.22026 834.111073,1036.59654 834.892586,1037.34911 C835.674099,1038.10168 836.064849,1038.99895 836.064849,1040.04097 C836.064849,1041.0251 835.688571,1041.90791 834.936003,1042.68942 C834.183436,1043.47093 833.286157,1043.86168 832.24414,1043.86168 Z M756.78512,1031.0102 C756.958789,1030.48919 757.248234,1030.0695 757.653463,1029.7511 C758.058692,1029.43271 758.521803,1029.17221 759.042812,1028.9696 C759.56382,1028.76698 760.099293,1028.62226 760.649247,1028.53542 C761.1992,1028.44859 761.705729,1028.34728 762.168847,1028.2315 C764.484441,1027.76839 766.74211,1027.53683 768.941924,1027.53683 C770.099721,1027.53683 771.300917,1027.59472 772.545548,1027.7105 C773.790179,1027.82628 774.991375,1028.04336 776.149172,1028.36176 C777.306969,1028.68015 778.406859,1029.14326 779.448876,1029.7511 C780.490893,1030.35895 781.359227,1031.18387 782.053905,1032.22588 C782.806473,1033.2679 783.29853,1034.39673 783.530089,1035.61242 C783.761648,1036.82811 783.834009,1038.05825 783.747175,1039.30288 C783.66034,1040.54751 783.443256,1041.79212 783.095917,1043.03676 C782.748578,1044.28139 782.3723,1045.45364 781.967071,1046.55354 C780.230376,1051.12684 777.885873,1055.25143 774.933492,1058.92743 C771.98111,1062.60344 768.970884,1066.03336 765.902723,1069.2173 C763.29768,1071.93812 760.432177,1074.62996 757.306126,1077.29289 C754.180075,1079.95582 750.865931,1082.24244 747.363597,1084.1528 C743.861262,1086.06317 740.243201,1087.40909 736.509307,1088.1906 C732.775413,1088.97211 729.027103,1088.84186 725.264263,1087.79984 C722.89078,1087.16306 720.835722,1086.03422 719.099027,1084.41331 C717.362332,1082.79239 716.175608,1080.79522 715.53882,1078.42174 C714.902032,1075.99037 714.829671,1073.54456 715.321734,1071.08424 C715.813798,1068.62392 716.725549,1066.38072 718.057015,1064.35458 C719.214812,1062.5021 720.69098,1060.82332 722.485565,1059.31819 C723.296023,1058.62351 724.149885,1057.97226 725.047178,1057.36442 C725.94447,1056.75657 726.827277,1056.30793 727.695624,1056.01849 C728.448192,1055.78693 729.084971,1055.87376 729.605979,1056.27899 C730.126988,1056.68422 730.546683,1057.23416 730.865077,1057.92884 C731.183471,1058.62352 731.400554,1059.3616 731.516334,1060.14312 C731.632114,1060.92463 731.632114,1061.54693 731.516334,1062.01005 C731.400554,1062.47317 731.140054,1062.80603 730.734825,1063.00865 C730.329596,1063.21126 729.924374,1063.3994 729.519145,1063.57307 C728.477128,1064.09408 727.449599,1064.67297 726.436527,1065.30976 C725.423455,1065.94655 724.497231,1066.68463 723.657829,1067.52403 C722.818426,1068.36343 722.094814,1069.27519 721.486971,1070.25931 C720.879127,1071.24344 720.488377,1072.34333 720.314707,1073.55902 C720.141038,1074.71681 720.198927,1075.8167 720.488376,1076.85872 C720.777825,1077.90074 721.255409,1078.81249 721.921142,1079.594 C722.586875,1080.37551 723.397321,1081.02677 724.352503,1081.54777 C725.307685,1082.06878 726.335214,1082.35823 727.435121,1082.41612 C729.924384,1082.70557 732.457026,1082.43059 735.033124,1081.59119 C737.609221,1080.75179 740.083975,1079.63743 742.457458,1078.24807 C744.830941,1076.85871 747.088611,1075.29571 749.230534,1073.55902 C751.372458,1071.82232 753.282794,1070.20143 754.961599,1068.6963 C759.071777,1065.04924 762.96481,1061.19962 766.640815,1057.14733 C770.316819,1053.09504 773.312573,1048.75337 775.628166,1044.12218 C776.091285,1043.08017 776.539924,1041.9658 776.974098,1040.77906 C777.408272,1039.59232 777.567466,1038.42007 777.451687,1037.26227 C777.335907,1035.9887 776.728073,1035.16378 775.628166,1034.7875 C774.528259,1034.41121 773.182341,1034.26649 771.590371,1034.35332 C769.9984,1034.44016 768.305148,1034.68619 766.510563,1035.09142 C764.715978,1035.49664 763.095087,1035.87292 761.647841,1036.22026 C761.068943,1036.33604 760.53347,1036.42287 760.041407,1036.48076 C759.549343,1036.53865 759.042815,1036.42288 758.521806,1036.13343 C757.711348,1035.61242 757.146931,1034.84539 756.828537,1033.83232 C756.510143,1032.81925 756.495671,1031.87855 756.78512,1031.0102 Z" id="path-3"></path>
		<filter x="-50%" y="-50%" width="200%" height="200%" filterUnits="objectBoundingBox" id="filter-4">
			<feOffset dx="0" dy="0" in="SourceAlpha" result="shadowOffsetOuter1"></feOffset>
			<feGaussianBlur stdDeviation="7" in="shadowOffsetOuter1" result="shadowBlurOuter1"></feGaussianBlur>
			<feColorMatrix values="0 0 0 0 0 0 0 0 0 0 0 0 0 0 0 0 0 0 0.05 0" type="matrix" in="shadowBlurOuter1"></feColorMatrix>
		</filter>
		<filter x="-50%" y="-50%" width="200%" height="200%" filterUnits="objectBoundingBox" id="filter-5">
			<feGaussianBlur stdDeviation="1.5" in="SourceAlpha" result="shadowBlurInner1"></feGaussianBlur>
			<feOffset dx="0" dy="-2" in="shadowBlurInner1" result="shadowOffsetInner1"></feOffset>
			<feComposite in="shadowOffsetInner1" in2="SourceAlpha" operator="arithmetic" k2="-1" k3="1" result="shadowInnerInner1"></feComposite>
			<feColorMatrix values="0 0 0 0 0.784313725 0 0 0 0 0.854901961 0 0 0 0 0.917647059 0 0 0 0.7 0" type="matrix" in="shadowInnerInner1"></feColorMatrix>
		</filter>
		<text id="text-6" font-family="CoreSansDS67CnHeavyItalic, Sacramento" text-anchor="middle" font-size="380" font-style="italic" font-weight="600">
			<!-- <tspan x="850" y="695">VKPass</tspan> -->
		</text>
		<filter x="-50%" y="-50%" width="200%" height="200%" filterUnits="objectBoundingBox" id="filter-7">
			<feOffset dx="0" dy="0" in="SourceAlpha" result="shadowOffsetOuter1"></feOffset>
			<feGaussianBlur stdDeviation="7" in="shadowOffsetOuter1" result="shadowBlurOuter1"></feGaussianBlur>
			<feColorMatrix values="0 0 0 0 0 0 0 0 0 0 0 0 0 0 0 0 0 0 0.05 0" type="matrix" in="shadowBlurOuter1"></feColorMatrix>
		</filter>
		<filter x="-50%" y="-50%" width="200%" height="200%" filterUnits="objectBoundingBox" id="filter-8">
			<feGaussianBlur stdDeviation="1.5" in="SourceAlpha" result="shadowBlurInner1"></feGaussianBlur>
			<feOffset dx="0" dy="-2" in="shadowBlurInner1" result="shadowOffsetInner1"></feOffset>
			<feComposite in="shadowOffsetInner1" in2="SourceAlpha" operator="arithmetic" k2="-1" k3="1" result="shadowInnerInner1"></feComposite>
			<feColorMatrix values="0 0 0 0 0.784313725 0 0 0 0 0.854901961 0 0 0 0 0.917647059 0 0 0 0.7 0" type="matrix" in="shadowInnerInner1"></feColorMatrix>
		</filter>
		<filter x="-50%" y="-50%" width="200%" height="200%" filterUnits="objectBoundingBox" id="filter-9">
			<feGaussianBlur stdDeviation="1.5" in="SourceAlpha" result="shadowBlurInner1"></feGaussianBlur>
			<feOffset dx="0" dy="-2" in="shadowBlurInner1" result="shadowOffsetInner1"></feOffset>
			<feComposite in="shadowOffsetInner1" in2="SourceAlpha" operator="arithmetic" k2="-1" k3="1" result="shadowInnerInner1"></feComposite>
			<feColorMatrix values="0 0 0 0 0.784313725 0 0 0 0 0.854901961 0 0 0 0 0.917647059 0 0 0 0.7 0" type="matrix" in="shadowInnerInner1"></feColorMatrix>
		</filter>
	</defs>
	<g id="Page-1" stroke="none" stroke-width="1" fill="none" fill-rule="evenodd">
		<g id="Group-2">
			<rect id="Rectangle" fill="url(#linearGradient-1)" x="0" y="0" width="1700" height="1120"></rect>
			<g id="Combined-Shape">
				<use fill="black" fill-opacity="1" filter="url(#filter-4)" xlink:href="#path-3"></use>
				<use fill="url(#linearGradient-2)" fill-rule="evenodd" xlink:href="#path-3"></use>
				<use fill="black" fill-opacity="1" filter="url(#filter-5)" xlink:href="#path-3"></use>
			</g>
			<g id="VKPass">
				<use fill="#E1E7ED" fill-opacity="1" filter="url(#filter-7)" xlink:href="#text-6"></use>
				<use fill="url(#linearGradient-2)" fill-rule="evenodd" xlink:href="#text-6"></use>
				<use fill="#E1E7ED" fill-opacity="1" filter="url(#filter-8)" xlink:href="#text-6"></use>
				<use fill="#E1E7ED" fill-opacity="1" filter="url(#filter-9)" xlink:href="#text-6"></use>
			</g>
		</g>
	</g>
</svg>