<svg xmlns="http://www.w3.org/2000/svg" width="512" height="512">
	<path fill="#FFFFFF" d="m322.33175,206.5721a44.0785,44.0785 0 0 0 21.93226,6.09824l0,-44.39946a44.38555,44.38555 0 0 0 -44.39946,-44.39946l-87.72905,0a44.39946,44.39946 0 0 0 -44.39946,44.39946c0,0.31026 0,0.63122 0.0107,0.94148l26.73596,35.47677l0,104.01241a43.3114,43.3114 0 0 0 -4.8144,-3.27379a44.0785,44.0785 0 0 0 -21.93226,-6.09824l0,44.39946a44.28712,44.28712 0 0 0 21.93226,38.30122a44.10845,44.10845 0 0 0 22.4672,6.09824l87.72905,0a44.41123,44.41123 0 0 0 44.39946,-44.39946c0,-0.23537 0,-0.48144 -0.0107,-0.71681l-25.6661,-34.06455l0,-104.84691a41.9163,41.9163 0 0 0 3.74453,2.47139zm-111.24471,138.76168c0.17118,-0.14978 0.33166,-0.29956 0.50284,-0.43865a44.3235,44.3235 0 0 0 14.98883,-33.26215l0,-64.35247l46.17544,61.29265l13.73709,18.21983l13.97246,18.54079l-89.37664,0zm89.32315,-178.31464a44.25182,44.25182 0 0 0 -13.91896,32.27787l0,67.05923l-47.35229,-62.84395l-12.56023,-16.65782l-15.2135,-20.18838l89.41944,0c-0.12838,0.11769 -0.24607,0.23537 -0.37445,0.35306z" />
</svg>