<svg width="221px" height="92px" viewBox="0 0 221 92" version="1.1" xmlns="http://www.w3.org/2000/svg" xmlns:xlink="http://www.w3.org/1999/xlink">
    <defs></defs>
    <g id="Page-1" stroke="none" stroke-width="1" fill="none" fill-rule="evenodd">
        <g id="Artboard" transform="translate(-210.000000, -114.000000)" fill="#FFFFFF">
            <path d="M268.640625,205.757812 L254.085938,205.757812 L254.085938,165.609375 L224.554688,165.609375 L224.554688,205.757812 L210,205.757812 L210,114 L224.554688,114 L224.554688,152.460938 L254.085938,152.460938 L254.085938,114 L268.640625,114 L268.640625,205.757812 Z M347.25,205.757812 L288.609375,205.757812 L288.609375,114 L347.25,114 L347.25,127.148438 L303.164062,127.148438 L303.164062,152.460938 L337.546875,152.460938 L337.546875,165.609375 L303.164062,165.609375 L303.164062,192.679688 L347.25,192.679688 L347.25,205.757812 Z M430.710938,127.148438 L424.101562,127.148438 L403.78125,168.351562 L403.78125,192.679688 L418.476562,192.679688 L418.476562,205.757812 L374.601562,205.757812 L374.601562,192.679688 L389.226562,192.679688 L389.226562,168.351562 L368.976562,127.148438 L362.367188,127.148438 L362.367188,114 L391.265625,114 L391.265625,127.148438 L384.9375,127.148438 L396.609375,154.078125 L408.140625,127.148438 L401.8125,127.148438 L401.8125,114 L430.710938,114 L430.710938,127.148438 Z" id="HEY"></path>
        </g>
    </g>
</svg>