<svg class="logo" width="228px" height="73px" viewBox="0 0 228 73" version="1.1" xmlns="http://www.w3.org/2000/svg" xmlns:xlink="http://www.w3.org/1999/xlink">
	<defs>
		<animateTransform  xlink:href="#Slavik-Nychkalo" attributeName="transform"  attributeType="XML" type="translate" from="-288 0" to="0 0"  dur="1.6s" begin="0s" repeatCount="1" fill="freeze" calcMode="spline" keySplines=" 0.1 0.8 0.2 1; 0.1 0.8 0.2 1; 0.1 0.8 0.2 1; 0.1 0.8 0.2 1; 0.1 0.8 0.2 1; 0.1 0.8 0.2 1" keyTimes="0;0.22;0.33;0.55;0.66;0.88;1" />
		<animateTransform  xlink:href="#Web-Developer" attributeName="transform"  attributeType="XML" type="translate" from="-288 0" to="0 0"  dur="2s" begin="0s" repeatCount="1" fill="freeze" calcMode="spline" keySplines=" 0.1 0.8 0.2 1; 0.1 0.8 0.2 1; 0.1 0.8 0.2 1; 0.1 0.8 0.2 1; 0.1 0.8 0.2 1; 0.1 0.8 0.2 1" keyTimes="0;0.22;0.33;0.55;0.66;0.88;1" />
		<animate xlink:href="#Logo" attributeName="opacity" from="0" to="1" dur="2s" begin="0s" timingFunction="ease" />
	</defs>
	<g id="Logo" stroke="none" stroke-width="1" fill="none" fill-rule="evenodd">
		<rect id="Rectangle" fill="#DB50F8" x="0" y="0" width="2.92307692" height="73"></rect>
		<path d="M23.136268,44.3161328 L21.1237981,55.48 L19.7364784,55.48 L18.597506,50.0306641 L17.4414062,55.48 L16.0712139,55.48 L14.0758714,44.3161328 L15.3176082,44.3161328 L16.8933293,53.5038672 L18.0151743,47.5070312 L19.171274,47.5070312 L20.3016827,53.5038672 L21.8774038,44.3161328 L23.136268,44.3161328 Z M25.3628305,51.9041406 C25.448468,52.7482073 25.7567582,53.4211694 26.2877103,53.9230469 C26.8186625,54.4249244 27.5094609,54.6758594 28.3601262,54.6758594 C28.9595883,54.6758594 29.4933871,54.5532434 29.9615385,54.3080078 C30.4296898,54.0627722 30.7807981,53.7576581 31.0148738,53.3926562 L31.8369892,53.9572656 C31.4373478,54.5161747 30.9606398,54.942479 30.406851,55.2361914 C29.8530621,55.5299038 29.1708274,55.6767578 28.3601262,55.6767578 C27.7435366,55.6767578 27.1783379,55.5741026 26.6645132,55.3687891 C26.1506885,55.1634755 25.7068078,54.8768964 25.3328576,54.509043 C24.9589074,54.1411896 24.6691717,53.7034791 24.4636418,53.1958984 C24.258112,52.6883178 24.1553486,52.123714 24.1553486,51.5020703 C24.1553486,50.897536 24.2481211,50.3400611 24.4336689,49.8296289 C24.6192167,49.3191967 24.8875433,48.8772089 25.2386569,48.5036523 C25.5897704,48.1300958 26.0165239,47.8392393 26.5189303,47.6310742 C27.0213366,47.4229091 27.5836808,47.3188281 28.2059796,47.3188281 C28.88537,47.3188281 29.479114,47.4328895 29.9872296,47.6610156 C30.4953451,47.8891418 30.9192441,48.2042363 31.2589393,48.6063086 C31.5986345,49.0083809 31.8498339,49.4888644 32.0125451,50.0477734 C32.1752562,50.6066825 32.2566106,51.2254654 32.2566106,51.9041406 L25.3628305,51.9041406 Z M31.0148738,50.9032422 C30.883563,50.0306597 30.5667092,49.38051 30.0643029,48.9527734 C29.5618965,48.5250369 28.9424616,48.3111719 28.2059796,48.3111719 C27.8291748,48.3111719 27.4809211,48.3724799 27.1612079,48.4950977 C26.8414948,48.6177155 26.5588955,48.7930848 26.3134014,49.0212109 C26.0679074,49.2493371 25.8623806,49.5245101 25.6968149,49.8467383 C25.5312492,50.1689665 25.4256312,50.5211309 25.3799579,50.9032422 L31.0148738,50.9032422 Z M41.7451923,51.5020703 C41.7451923,52.1123077 41.6509925,52.6740599 41.4625901,53.1873437 C41.2741878,53.7006276 41.0044338,54.1411896 40.6533203,54.509043 C40.3022068,54.8768964 39.8783078,55.1634755 39.3816106,55.3687891 C38.8849134,55.5741026 38.3282783,55.6767578 37.7116887,55.6767578 C37.2777923,55.6767578 36.8624569,55.5997664 36.4656701,55.4457812 C36.0688832,55.2917961 35.6992205,55.0636734 35.3566707,54.7614062 L35.3566707,55.48 L34.1834435,55.48 L34.1834435,44.3161328 L35.3566707,44.3161328 L35.3566707,48.2427344 C35.6992205,47.9518735 36.0688832,47.7251766 36.4656701,47.5626367 C36.8624569,47.4000968 37.2777923,47.3188281 37.7116887,47.3188281 C38.3282783,47.3188281 38.8849134,47.4229091 39.3816106,47.6310742 C39.8783078,47.8392393 40.3022068,48.1272443 40.6533203,48.4950977 C41.0044338,48.8629511 41.2741878,49.3049388 41.4625901,49.8210742 C41.6509925,50.3372096 41.7451923,50.897536 41.7451923,51.5020703 Z M40.5548377,51.5020703 C40.5548377,51.045818 40.4963197,50.6252168 40.3792819,50.2402539 C40.262244,49.855291 40.0838353,49.5202358 39.8440505,49.2350781 C39.6042656,48.9499204 39.3059663,48.7246493 38.9491436,48.5592578 C38.5923209,48.3938664 38.1798401,48.3111719 37.7116887,48.3111719 C36.8096409,48.3111719 36.0246428,48.6676136 35.3566707,49.3805078 L35.3566707,53.6407422 C35.6992205,54.0114472 36.0660287,54.2766398 36.4571064,54.4363281 C36.848184,54.5960164 37.266374,54.6758594 37.7116887,54.6758594 C38.1798401,54.6758594 38.5894664,54.5931649 38.9405799,54.4277734 C39.2916935,54.262382 39.5871382,54.0371108 39.8269231,53.7519531 C40.0667079,53.4667954 40.2479711,53.1317402 40.3707181,52.7467773 C40.4934652,52.3618145 40.5548377,51.9469163 40.5548377,51.5020703 Z M61.261869,49.9108984 C61.261869,50.6580115 61.1833692,51.3694693 61.0263672,52.045293 C60.8693652,52.7211167 60.6181658,53.3142357 60.2727614,53.824668 C59.927357,54.3351002 59.482049,54.7385923 58.9368239,55.0351562 C58.3915988,55.3317202 57.7336277,55.48 56.9628906,55.48 L53.331881,55.48 L53.331881,44.3161328 L56.9628906,44.3161328 C57.7222093,44.3161328 58.3744714,44.4686899 58.9196965,44.7738086 C59.4649216,45.0789273 59.9102296,45.4881224 60.255634,46.0014062 C60.6010384,46.5146901 60.8550923,47.1078091 61.0178035,47.7807812 C61.1805146,48.4537534 61.261869,49.1637853 61.261869,49.9108984 Z M60.0886418,49.9108984 C60.0886418,48.4508911 59.8131788,47.3202579 59.2622446,46.5189648 C58.7113103,45.7176718 57.9448667,45.3170312 56.9628906,45.3170312 L54.5051082,45.3170312 L54.5051082,54.4791016 L56.9628906,54.4791016 C57.9448667,54.4791016 58.7113103,54.0827383 59.2622446,53.29 C59.8131788,52.4972617 60.0886418,51.3709057 60.0886418,49.9108984 Z M63.6597055,51.9041406 C63.745343,52.7482073 64.0536332,53.4211694 64.5845853,53.9230469 C65.1155375,54.4249244 65.8063359,54.6758594 66.6570012,54.6758594 C67.2564633,54.6758594 67.7902621,54.5532434 68.2584135,54.3080078 C68.7265648,54.0627722 69.0776731,53.7576581 69.3117488,53.3926562 L70.1338642,53.9572656 C69.7342228,54.5161747 69.2575148,54.942479 68.703726,55.2361914 C68.1499371,55.5299038 67.4677024,55.6767578 66.6570012,55.6767578 C66.0404116,55.6767578 65.4752129,55.5741026 64.9613882,55.3687891 C64.4475635,55.1634755 64.0036828,54.8768964 63.6297326,54.509043 C63.2557824,54.1411896 62.9660467,53.7034791 62.7605168,53.1958984 C62.554987,52.6883178 62.4522236,52.123714 62.4522236,51.5020703 C62.4522236,50.897536 62.5449961,50.3400611 62.7305439,49.8296289 C62.9160917,49.3191967 63.1844183,48.8772089 63.5355319,48.5036523 C63.8866454,48.1300958 64.3133989,47.8392393 64.8158053,47.6310742 C65.3182116,47.4229091 65.8805558,47.3188281 66.5028546,47.3188281 C67.182245,47.3188281 67.775989,47.4328895 68.2841046,47.6610156 C68.7922201,47.8891418 69.2161191,48.2042363 69.5558143,48.6063086 C69.8955095,49.0083809 70.1467089,49.4888644 70.3094201,50.0477734 C70.4721312,50.6066825 70.5534856,51.2254654 70.5534856,51.9041406 L63.6597055,51.9041406 Z M69.3117488,50.9032422 C69.180438,50.0306597 68.8635842,49.38051 68.3611779,48.9527734 C67.8587715,48.5250369 67.2393366,48.3111719 66.5028546,48.3111719 C66.1260498,48.3111719 65.7777961,48.3724799 65.4580829,48.4950977 C65.1383698,48.6177155 64.8557705,48.7930848 64.6102764,49.0212109 C64.3647824,49.2493371 64.1592556,49.5245101 63.9936899,49.8467383 C63.8281242,50.1689665 63.7225062,50.5211309 63.6768329,50.9032422 L69.3117488,50.9032422 Z M80.3075421,47.5070312 L76.8478065,55.48 L75.2720853,55.48 L71.7952224,47.5070312 L73.1996695,47.5070312 L76.0599459,54.4962109 L78.903095,47.5070312 L80.3075421,47.5070312 Z M82.808143,51.9041406 C82.8937805,52.7482073 83.2020707,53.4211694 83.7330228,53.9230469 C84.263975,54.4249244 84.9547734,54.6758594 85.8054387,54.6758594 C86.4049008,54.6758594 86.9386996,54.5532434 87.406851,54.3080078 C87.8750023,54.0627722 88.2261106,53.7576581 88.4601863,53.3926562 L89.2823017,53.9572656 C88.8826603,54.5161747 88.4059523,54.942479 87.8521635,55.2361914 C87.2983746,55.5299038 86.6161399,55.6767578 85.8054387,55.6767578 C85.1888491,55.6767578 84.6236504,55.5741026 84.1098257,55.3687891 C83.596001,55.1634755 83.1521203,54.8768964 82.7781701,54.509043 C82.4042199,54.1411896 82.1144842,53.7034791 81.9089543,53.1958984 C81.7034245,52.6883178 81.6006611,52.123714 81.6006611,51.5020703 C81.6006611,50.897536 81.6934336,50.3400611 81.8789814,49.8296289 C82.0645292,49.3191967 82.3328558,48.8772089 82.6839694,48.5036523 C83.0350829,48.1300958 83.4618364,47.8392393 83.9642428,47.6310742 C84.4666491,47.4229091 85.0289933,47.3188281 85.6512921,47.3188281 C86.3306825,47.3188281 86.9244265,47.4328895 87.4325421,47.6610156 C87.9406576,47.8891418 88.3645566,48.2042363 88.7042518,48.6063086 C89.043947,49.0083809 89.2951464,49.4888644 89.4578576,50.0477734 C89.6205687,50.6066825 89.7019231,51.2254654 89.7019231,51.9041406 L82.808143,51.9041406 Z M88.4601863,50.9032422 C88.3288755,50.0306597 88.0120217,49.38051 87.5096154,48.9527734 C87.007209,48.5250369 86.3877741,48.3111719 85.6512921,48.3111719 C85.2744873,48.3111719 84.9262336,48.3724799 84.6065204,48.4950977 C84.2868073,48.6177155 84.004208,48.7930848 83.7587139,49.0212109 C83.5132199,49.2493371 83.3076931,49.5245101 83.1421274,49.8467383 C82.9765617,50.1689665 82.8709437,50.5211309 82.8252704,50.9032422 L88.4601863,50.9032422 Z M97.5890925,55.48 L92.8019832,55.48 L92.8019832,54.4791016 L94.6089243,54.4791016 L94.6089243,45.3170312 L92.8019832,45.3170312 L92.8019832,44.3161328 L95.7907151,44.3161328 L95.7907151,54.4791016 L97.5890925,54.4791016 L97.5890925,55.48 Z M108.970252,51.5191797 C108.970252,52.1408234 108.871771,52.7054271 108.674805,53.2130078 C108.477839,53.7205885 108.195239,54.1554474 107.826998,54.5175977 C107.458757,54.8797479 107.017731,55.1634755 106.503906,55.3687891 C105.990082,55.5741026 105.416319,55.6767578 104.782602,55.6767578 C104.160303,55.6767578 103.59225,55.5741026 103.078425,55.3687891 C102.564601,55.1634755 102.123575,54.8797479 101.755334,54.5175977 C101.387093,54.1554474 101.104493,53.7205885 100.907527,53.2130078 C100.710561,52.7054271 100.612079,52.1408234 100.612079,51.5191797 C100.612079,50.9146454 100.710561,50.3514675 100.907527,49.8296289 C101.104493,49.3077904 101.387093,48.8629511 101.755334,48.4950977 C102.123575,48.1272443 102.564601,47.8392393 103.078425,47.6310742 C103.59225,47.4229091 104.160303,47.3188281 104.782602,47.3188281 C105.416319,47.3188281 105.990082,47.4229091 106.503906,47.6310742 C107.017731,47.8392393 107.458757,48.1272443 107.826998,48.4950977 C108.195239,48.8629511 108.477839,49.3077904 108.674805,49.8296289 C108.871771,50.3514675 108.970252,50.9146454 108.970252,51.5191797 Z M107.797025,51.5191797 C107.797025,51.0629274 107.729944,50.6423261 107.595778,50.2573633 C107.461613,49.8724004 107.263222,49.5344936 107.000601,49.2436328 C106.737979,48.952772 106.419698,48.7246493 106.045748,48.5592578 C105.671798,48.3938664 105.250754,48.3111719 104.782602,48.3111719 C104.314451,48.3111719 103.893406,48.3938664 103.519456,48.5592578 C103.145506,48.7246493 102.830079,48.952772 102.573167,49.2436328 C102.316255,49.5344936 102.120719,49.8724004 101.986553,50.2573633 C101.852388,50.6423261 101.785306,51.0629274 101.785306,51.5191797 C101.785306,51.975432 101.852388,52.3960332 101.986553,52.7809961 C102.120719,53.165959 102.316255,53.4981627 102.573167,53.7776172 C102.830079,54.0570717 103.145506,54.2766398 103.519456,54.4363281 C103.893406,54.5960164 104.314451,54.6758594 104.782602,54.6758594 C105.250754,54.6758594 105.671798,54.5960164 106.045748,54.4363281 C106.419698,54.2766398 106.737979,54.0570717 107.000601,53.7776172 C107.263222,53.4981627 107.461613,53.165959 107.595778,52.7809961 C107.729944,52.3960332 107.797025,51.975432 107.797025,51.5191797 Z M118.338942,51.5020703 C118.338942,52.123714 118.241888,52.6883178 118.047776,53.1958984 C117.853665,53.7034791 117.581056,54.1411896 117.229943,54.509043 C116.878829,54.8768964 116.45493,55.1634755 115.958233,55.3687891 C115.461536,55.5741026 114.904901,55.6767578 114.288311,55.6767578 C113.865833,55.6767578 113.456207,55.5997664 113.05942,55.4457812 C112.662633,55.2917961 112.29297,55.0636734 111.950421,54.7614062 L111.950421,58.6708984 L110.777194,58.6708984 L110.777194,47.5070312 L111.950421,47.5070312 L111.950421,48.2427344 C112.675484,47.6267938 113.454773,47.3188281 114.288311,47.3188281 C114.904901,47.3188281 115.461536,47.4200576 115.958233,47.6225195 C116.45493,47.8249815 116.878829,48.1129864 117.229943,48.486543 C117.581056,48.8600995 117.853665,49.3049388 118.047776,49.8210742 C118.241888,50.3372096 118.338942,50.897536 118.338942,51.5020703 Z M117.165715,51.5020703 C117.165715,51.0572243 117.104343,50.6394746 116.981596,50.2488086 C116.858849,49.8581426 116.674731,49.5202358 116.429237,49.2350781 C116.183743,48.9499204 115.882589,48.7246493 115.525766,48.5592578 C115.168944,48.3938664 114.756463,48.3111719 114.288311,48.3111719 C113.842997,48.3111719 113.427661,48.3938664 113.042293,48.5592578 C112.656924,48.7246493 112.29297,48.9926935 111.950421,49.3633984 L111.950421,53.6407422 C112.29297,54.0114472 112.656924,54.2766398 113.042293,54.4363281 C113.427661,54.5960164 113.842997,54.6758594 114.288311,54.6758594 C114.756463,54.6758594 115.168944,54.5931649 115.525766,54.4277734 C115.882589,54.262382 116.183743,54.0371108 116.429237,53.7519531 C116.674731,53.4667954 116.858849,53.1317402 116.981596,52.7467773 C117.104343,52.3618145 117.165715,51.9469163 117.165715,51.5020703 Z M121.105018,51.9041406 C121.190655,52.7482073 121.498946,53.4211694 122.029898,53.9230469 C122.56085,54.4249244 123.251648,54.6758594 124.102314,54.6758594 C124.701776,54.6758594 125.235575,54.5532434 125.703726,54.3080078 C126.171877,54.0627722 126.522986,53.7576581 126.757061,53.3926562 L127.579177,53.9572656 C127.179535,54.5161747 126.702827,54.942479 126.149038,55.2361914 C125.59525,55.5299038 124.913015,55.6767578 124.102314,55.6767578 C123.485724,55.6767578 122.920525,55.5741026 122.406701,55.3687891 C121.892876,55.1634755 121.448995,54.8768964 121.075045,54.509043 C120.701095,54.1411896 120.411359,53.7034791 120.205829,53.1958984 C120.000299,52.6883178 119.897536,52.123714 119.897536,51.5020703 C119.897536,50.897536 119.990309,50.3400611 120.175856,49.8296289 C120.361404,49.3191967 120.629731,48.8772089 120.980844,48.5036523 C121.331958,48.1300958 121.758711,47.8392393 122.261118,47.6310742 C122.763524,47.4229091 123.325868,47.3188281 123.948167,47.3188281 C124.627557,47.3188281 125.221302,47.4328895 125.729417,47.6610156 C126.237533,47.8891418 126.661432,48.2042363 127.001127,48.6063086 C127.340822,49.0083809 127.592021,49.4888644 127.754733,50.0477734 C127.917444,50.6066825 127.998798,51.2254654 127.998798,51.9041406 L121.105018,51.9041406 Z M126.757061,50.9032422 C126.625751,50.0306597 126.308897,49.38051 125.80649,48.9527734 C125.304084,48.5250369 124.684649,48.3111719 123.948167,48.3111719 C123.571362,48.3111719 123.223109,48.3724799 122.903395,48.4950977 C122.583682,48.6177155 122.301083,48.7930848 122.055589,49.0212109 C121.810095,49.2493371 121.604568,49.5245101 121.439002,49.8467383 C121.273437,50.1689665 121.167819,50.5211309 121.122145,50.9032422 L126.757061,50.9032422 Z M137.050631,48.6276953 C136.628153,48.4166786 136.125754,48.3111719 135.543419,48.3111719 C135.06385,48.3111719 134.635669,48.4138271 134.258864,48.6191406 C133.882059,48.8244542 133.562351,49.0939241 133.29973,49.4275586 C133.037108,49.7611931 132.835863,50.1432986 132.695989,50.5738867 C132.556114,51.0044748 132.486178,51.4478883 132.486178,51.9041406 L132.486178,54.4791016 L134.293119,54.4791016 L134.293119,55.48 L129.50601,55.48 L129.50601,54.4791016 L131.312951,54.4791016 L131.312951,48.5079297 L129.50601,48.5079297 L129.50601,47.5070312 L132.486178,47.5070312 L132.486178,49.5088281 C133.022839,48.0488208 134.04191,47.3188281 135.543419,47.3188281 C135.94877,47.3188281 136.301306,47.3444919 136.601037,47.3958203 C136.900768,47.4471487 137.179085,47.5383978 137.435998,47.6695703 L137.050631,48.6276953 Z" id="Web-Developer" fill="#FFFFFF"></path>
		<path d="M26.1635367,26.0661328 C26.1635367,26.8360585 26.0329415,27.5225653 25.7717473,28.1256738 C25.5105531,28.7287823 25.155163,29.2399198 24.7055664,29.6591016 C24.2559698,30.0782833 23.7207438,30.3990809 23.0998723,30.6215039 C22.4790008,30.8439269 21.8174614,30.9551367 21.1152344,30.9551367 C20.3273699,30.9551367 19.6165897,30.8139858 18.9828726,30.5316797 C18.3491555,30.2493736 17.8053659,29.7831478 17.3514874,29.1329883 L17.3514874,30.66 L14.9622145,30.66 L14.9622145,25.1935547 L17.3514874,25.1935547 C17.3514874,25.7410574 17.4478281,26.2243924 17.6405123,26.6435742 C17.8331966,27.062756 18.0879642,27.4156333 18.4048227,27.7022168 C18.7216813,27.9888003 19.0899168,28.2069426 19.5095403,28.3566504 C19.9291638,28.5063582 20.3744718,28.5812109 20.8454778,28.5812109 C21.641906,28.5812109 22.2841772,28.397287 22.7723107,28.0294336 C23.2604441,27.6615802 23.5045072,27.07559 23.5045072,26.2714453 C23.5045072,25.8522635 23.4295756,25.4929702 23.27971,25.1935547 C23.1298445,24.8941391 22.9157541,24.6268078 22.6374324,24.3915527 C22.3591107,24.1562977 22.0187069,23.9509872 21.6162109,23.7756152 C21.2137149,23.6002433 20.7555615,23.4141807 20.2417368,23.2174219 C19.6337109,23.0121083 19.0256941,22.7811341 18.4176683,22.5244922 C17.8096424,22.2678503 17.2658528,21.95133 16.7862831,21.5749219 C16.3067133,21.1985137 15.9170688,20.7344266 15.6173377,20.1826465 C15.3176067,19.6308664 15.1677434,18.935805 15.1677434,18.0974414 C15.1677434,17.3617346 15.3026203,16.7180008 15.5723783,16.1662207 C15.8421363,15.6144406 16.2018081,15.1503534 16.6514047,14.7739453 C17.1010013,14.3975372 17.6233819,14.1130967 18.2185622,13.9206152 C18.8137425,13.7281338 19.4453092,13.6318945 20.1132812,13.6318945 C20.8840183,13.6318945 21.5455576,13.794432 22.0979192,14.1195117 C22.6502807,14.4445915 23.0763206,14.8765989 23.3760517,15.4155469 L23.3760517,13.9141992 L25.7653245,13.9141992 L25.7653245,19.1240039 L23.3760517,19.1240039 C23.3760517,18.1402099 23.1170023,17.3724344 22.5988957,16.8206543 C22.0807892,16.2688742 21.3849954,15.9929883 20.5114934,15.9929883 C19.7407564,15.9929883 19.100626,16.1726349 18.5910832,16.5319336 C18.0815404,16.8912323 17.8267728,17.3959538 17.8267728,18.0461133 C17.8267728,18.3797478 17.8931409,18.6641883 18.0258789,18.8994434 C18.1586169,19.1346984 18.3512983,19.3485635 18.6039288,19.5410449 C18.8565593,19.7335264 19.175554,19.913173 19.5609225,20.0799902 C19.946291,20.2468075 20.391599,20.4285928 20.89686,20.6253516 C21.5305771,20.8477745 22.1600029,21.1001353 22.7851562,21.3824414 C23.4103096,21.6647475 23.9712265,22.0112089 24.4679237,22.4218359 C24.9646209,22.832463 25.3713926,23.3307686 25.6882512,23.9167676 C26.0051098,24.5027666 26.1635367,25.2192145 26.1635367,26.0661328 Z M39.0476262,30.66 L31.0063101,30.66 L31.0063101,28.2732422 L33.6268029,28.2732422 L33.6268029,16.3137891 L31.0063101,16.3137891 L31.0063101,13.9141992 L36.2858323,13.9141992 L36.2858323,28.2732422 L39.0476262,28.2732422 L39.0476262,30.66 Z M43.2866587,27.2210156 C43.2866587,26.5195277 43.4750582,25.9057351 43.851863,25.3796191 C44.2286677,24.8535032 44.7232166,24.4150799 45.3355243,24.0643359 C45.9478321,23.713592 46.6500486,23.450538 47.442195,23.275166 C48.2343414,23.099794 49.0414622,23.0121094 49.8635817,23.0121094 C50.3174602,23.0121094 50.7071047,23.020664 51.032527,23.0377734 C51.3579493,23.0548829 51.6876486,23.0805467 52.0216346,23.1147656 L52.0216346,22.6399805 C52.0216346,22.0154852 51.7797125,21.5492594 51.2958609,21.2412891 C50.8120093,20.9333188 50.1761608,20.7793359 49.3882963,20.7793359 C48.6689417,20.7793359 47.9367525,20.8798525 47.1917067,21.0808887 C46.4466609,21.2819248 45.7401626,21.57492 45.0721905,21.9598828 L43.9931641,19.8810938 C44.7810286,19.427693 45.6266857,19.0705384 46.5301608,18.8096191 C47.4336358,18.5486999 48.3863381,18.4182422 49.3882963,18.4182422 C50.0391409,18.4182422 50.6792712,18.4909563 51.3087064,18.6363867 C51.9381417,18.7818171 52.5033403,19.021346 53.0043194,19.3549805 C53.5052985,19.6886149 53.9056475,20.122761 54.2053786,20.6574316 C54.5051097,21.1921023 54.654973,21.8529453 54.654973,22.6399805 L54.654973,30.66 L52.0216346,30.66 L52.0216346,28.9020117 C51.6020111,29.5521712 50.9832898,30.0568927 50.1654522,30.4161914 C49.3476146,30.7754901 48.467703,30.9551367 47.5256911,30.9551367 C46.9433565,30.9551367 46.3931441,30.8760067 45.8750376,30.7177441 C45.356931,30.5594816 44.9094821,30.3220914 44.5326773,30.0055664 C44.1558725,29.6890414 43.854005,29.2976683 43.6270658,28.8314355 C43.4001266,28.3652027 43.2866587,27.8284015 43.2866587,27.2210156 Z M48.2065054,28.5812109 C48.7288938,28.5812109 49.2191609,28.5149128 49.6773212,28.3823145 C50.1354816,28.2497161 50.5401124,28.0657922 50.891226,27.8305371 C51.2423395,27.595282 51.5185161,27.3108415 51.7197641,26.977207 C51.9210121,26.6435726 52.0216346,26.2757247 52.0216346,25.8736523 L52.0216346,25.4245313 C51.6020111,25.3560934 51.2080848,25.3175977 50.8398438,25.309043 C50.4716027,25.3004882 50.1461853,25.2962109 49.8635817,25.2962109 C48.5618925,25.2962109 47.5792176,25.467303 46.9155273,25.8094922 C46.2518371,26.1516814 45.919997,26.5751342 45.919997,27.0798633 C45.919997,28.0807667 46.6821588,28.5812109 48.2065054,28.5812109 Z M69.6714243,18.7005469 L65.2525541,30.66 L62.1182392,30.66 L57.699369,18.7005469 L60.5382362,18.7005469 L63.6982422,27.7471289 L66.8325571,18.7005469 L69.6714243,18.7005469 Z M79.6652644,17.1478711 L76.4281851,17.1478711 L76.4281851,13.9141992 L79.6652644,13.9141992 L79.6652644,17.1478711 Z M82.1059195,30.66 L74.0646034,30.66 L74.0646034,28.2732422 L76.7107873,28.2732422 L76.7107873,21.1001367 L74.0646034,21.1001367 L74.0646034,18.7005469 L79.3698167,18.7005469 L79.3698167,28.2732422 L82.1059195,28.2732422 L82.1059195,30.66 Z M98.3683894,30.66 L94.9257812,30.66 L90.9179688,25.8223242 L89.7104868,27.0541992 L89.7104868,30.66 L87.0514573,30.66 L87.0514573,13.9141992 L89.7104868,13.9141992 L89.7104868,23.7691992 L94.501878,18.7005469 L98.150015,18.7005469 L92.6264273,24.1926563 L98.3683894,30.66 Z M126.487305,30.66 L123.404372,30.66 L118.433143,18.5208984 L118.433143,30.66 L115.774114,30.66 L115.774114,13.9141992 L119.113957,13.9141992 L123.828275,25.4501953 L123.828275,13.9141992 L126.487305,13.9141992 L126.487305,30.66 Z M141.3753,18.7005469 L136.211388,32.9954297 C135.82602,34.0305521 135.265103,34.740584 134.528621,35.1255469 C133.792139,35.5105097 132.914368,35.7029883 131.895282,35.7029883 C131.544169,35.7029883 131.16737,35.6687699 130.764874,35.600332 C130.362378,35.5318942 129.942761,35.4164071 129.50601,35.2538672 L130.058368,32.8157812 C130.426609,32.9526569 130.764872,33.0488962 131.073167,33.104502 C131.381462,33.1601077 131.655498,33.1879102 131.895282,33.1879102 C132.691711,33.1879102 133.2355,32.8371715 133.526668,32.1356836 L134.001953,30.9808008 L129.428936,18.7005469 L132.19073,18.7005469 L135.479192,27.7471289 L138.523588,18.7005469 L141.3753,18.7005469 Z M155.389799,28.9533398 C154.619062,29.7232656 153.807659,30.2493736 152.955566,30.5316797 C152.103474,30.8139858 151.180744,30.9551367 150.18735,30.9551367 C149.185392,30.9551367 148.275507,30.8054312 147.45767,30.5060156 C146.639832,30.2066001 145.946179,29.7852859 145.37669,29.2420605 C144.807201,28.6988352 144.370457,28.0422695 144.066444,27.2723438 C143.762431,26.502418 143.610427,25.6426805 143.610427,24.6931055 C143.610427,23.7863041 143.762431,22.9458144 144.066444,22.1716113 C144.370457,21.3974082 144.78151,20.7344266 145.299617,20.1826465 C145.817723,19.6308664 146.427881,19.198859 147.130108,18.8866113 C147.832335,18.5743637 148.57737,18.4182422 149.365234,18.4182422 C150.187354,18.4182422 150.902416,18.5893342 151.510442,18.9315234 C152.118468,19.2737126 152.559494,19.7741569 152.833534,20.4328711 L152.833534,18.7005469 L155.209961,18.7005469 L155.209961,24.2696484 L152.833534,24.2696484 C152.833534,23.2174166 152.544512,22.376927 151.966459,21.7481543 C151.388406,21.1193816 150.636949,20.805 149.712064,20.805 C149.343823,20.805 148.95632,20.8798528 148.549542,21.0295605 C148.142764,21.1792683 147.770247,21.4123812 147.431979,21.7289063 C147.093711,22.0454313 146.813252,22.4474976 146.590595,22.9351172 C146.367938,23.4227368 146.256611,24.008727 146.256611,24.6931055 C146.256611,25.3603744 146.363656,25.9356714 146.577749,26.4190137 C146.791843,26.9023559 147.072301,27.3001449 147.419133,27.6123926 C147.765965,27.9246402 148.177018,28.1598918 148.652306,28.3181543 C149.127594,28.4764168 149.617861,28.5555469 150.123122,28.5555469 C150.98806,28.5555469 151.739518,28.4208119 152.377517,28.1513379 C153.015516,27.8818639 153.565728,27.5247093 154.02817,27.0798633 L155.389799,28.9533398 Z M169.571289,30.66 L166.91226,30.66 L166.91226,23.281582 C166.91226,22.3491164 166.736705,21.703244 166.385592,21.3439453 C166.034478,20.9846466 165.524943,20.805 164.856971,20.805 C163.872141,20.805 163.069301,21.202789 162.44843,21.9983789 C161.827558,22.7939688 161.517127,23.8932352 161.517127,25.2962109 L161.517127,30.66 L158.858098,30.66 L158.858098,13.9141992 L161.517127,13.9141992 L161.517127,21.7032422 C161.782603,20.6681198 162.275011,19.8618486 162.994366,19.2844043 C163.713721,18.70696 164.600055,18.4182422 165.653395,18.4182422 C166.878011,18.4182422 167.837136,18.8160312 168.530799,19.6116211 C169.224463,20.407211 169.571289,21.6305191 169.571289,23.281582 L169.571289,30.66 Z M184.536358,30.66 L181.09375,30.66 L177.085937,25.8223242 L175.878456,27.0541992 L175.878456,30.66 L173.219426,30.66 L173.219426,13.9141992 L175.878456,13.9141992 L175.878456,23.7691992 L180.669847,18.7005469 L184.317984,18.7005469 L178.794396,24.1926563 L184.536358,30.66 Z M186.89994,27.2210156 C186.89994,26.5195277 187.088339,25.9057351 187.465144,25.3796191 C187.841949,24.8535032 188.336498,24.4150799 188.948806,24.0643359 C189.561113,23.713592 190.26333,23.450538 191.055476,23.275166 C191.847623,23.099794 192.654743,23.0121094 193.476863,23.0121094 C193.930741,23.0121094 194.320386,23.020664 194.645808,23.0377734 C194.971231,23.0548829 195.30093,23.0805467 195.634916,23.1147656 L195.634916,22.6399805 C195.634916,22.0154852 195.392994,21.5492594 194.909142,21.2412891 C194.425291,20.9333188 193.789442,20.7793359 193.001578,20.7793359 C192.282223,20.7793359 191.550034,20.8798525 190.804988,21.0808887 C190.059942,21.2819248 189.353444,21.57492 188.685472,21.9598828 L187.606445,19.8810938 C188.39431,19.427693 189.239967,19.0705384 190.143442,18.8096191 C191.046917,18.5486999 191.999619,18.4182422 193.001578,18.4182422 C193.652422,18.4182422 194.292552,18.4909563 194.921988,18.6363867 C195.551423,18.7818171 196.116622,19.021346 196.617601,19.3549805 C197.11858,19.6886149 197.518929,20.122761 197.81866,20.6574316 C198.118391,21.1921023 198.268254,21.8529453 198.268254,22.6399805 L198.268254,30.66 L195.634916,30.66 L195.634916,28.9020117 C195.215292,29.5521712 194.596571,30.0568927 193.778733,30.4161914 C192.960896,30.7754901 192.080984,30.9551367 191.138972,30.9551367 C190.556638,30.9551367 190.006425,30.8760067 189.488319,30.7177441 C188.970212,30.5594816 188.522763,30.3220914 188.145959,30.0055664 C187.769154,29.6890414 187.467286,29.2976683 187.240347,28.8314355 C187.013408,28.3652027 186.89994,27.8284015 186.89994,27.2210156 Z M191.819787,28.5812109 C192.342175,28.5812109 192.832442,28.5149128 193.290602,28.3823145 C193.748763,28.2497161 194.153394,28.0657922 194.504507,27.8305371 C194.855621,27.595282 195.131797,27.3108415 195.333045,26.977207 C195.534293,26.6435726 195.634916,26.2757247 195.634916,25.8736523 L195.634916,25.4245313 C195.215292,25.3560934 194.821366,25.3175977 194.453125,25.309043 C194.084884,25.3004882 193.759467,25.2962109 193.476863,25.2962109 C192.175174,25.2962109 191.192499,25.467303 190.528809,25.8094922 C189.865118,26.1516814 189.533278,26.5751342 189.533278,27.0798633 C189.533278,28.0807667 190.29544,28.5812109 191.819787,28.5812109 Z M211.383564,30.66 L203.342248,30.66 L203.342248,28.2732422 L205.96274,28.2732422 L205.96274,16.3137891 L203.342248,16.3137891 L203.342248,13.9141992 L208.62177,13.9141992 L208.62177,28.2732422 L211.383564,28.2732422 L211.383564,30.66 Z M227.954327,24.6931055 C227.954327,25.6255711 227.806605,26.4724767 227.511155,27.2338477 C227.215706,27.9952187 226.791807,28.6517844 226.239446,29.2035645 C225.687084,29.7553446 225.025545,30.1852133 224.254808,30.4931836 C223.484071,30.8011539 222.623427,30.9551367 221.672852,30.9551367 C220.739403,30.9551367 219.887324,30.8011539 219.116587,30.4931836 C218.34585,30.1852133 217.68431,29.7553446 217.131949,29.2035645 C216.579587,28.6517844 216.155688,27.9952187 215.860239,27.2338477 C215.56479,26.4724767 215.417067,25.6255711 215.417067,24.6931055 C215.417067,23.7863041 215.56479,22.9458144 215.860239,22.1716113 C216.155688,21.3974082 216.579587,20.7301493 217.131949,20.1698145 C217.68431,19.6094796 218.34585,19.1774722 219.116587,18.8737793 C219.887324,18.5700864 220.739403,18.4182422 221.672852,18.4182422 C222.623427,18.4182422 223.484071,18.5700864 224.254808,18.8737793 C225.025545,19.1774722 225.687084,19.6094796 226.239446,20.1698145 C226.791807,20.7301493 227.215706,21.3974082 227.511155,22.1716113 C227.806605,22.9458144 227.954327,23.7863041 227.954327,24.6931055 Z M225.308143,24.6931055 C225.308143,24.1541575 225.224648,23.64302 225.057655,23.1596777 C224.890662,22.6763355 224.64874,22.2635759 224.331881,21.9213867 C224.015022,21.5791975 223.631801,21.3075889 223.182204,21.1065527 C222.732607,20.9055166 222.229495,20.805 221.672852,20.805 C221.107644,20.805 220.602391,20.9055166 220.157076,21.1065527 C219.711762,21.3075889 219.334962,21.5791975 219.026668,21.9213867 C218.718373,22.2635759 218.480733,22.6763355 218.313739,23.1596777 C218.146746,23.64302 218.063251,24.1541575 218.063251,24.6931055 C218.063251,25.2577177 218.146746,25.7709938 218.313739,26.2329492 C218.480733,26.6949047 218.718373,27.1012482 219.026668,27.4519922 C219.334962,27.8027361 219.711762,28.0743447 220.157076,28.2668262 C220.602391,28.4593076 221.107644,28.5555469 221.672852,28.5555469 C222.229495,28.5555469 222.732607,28.4593076 223.182204,28.2668262 C223.631801,28.0743447 224.015022,27.8027361 224.331881,27.4519922 C224.64874,27.1012482 224.890662,26.6949047 225.057655,26.2329492 C225.224648,25.7709938 225.308143,25.2577177 225.308143,24.6931055 Z" id="Slavik-Nychkalo" fill="#FFFFFF"></path>
	</g>
</svg>