<svg width="20" height="20" viewBox="0 0 312 312" xmlns="http://www.w3.org/2000/svg" fill="currentColor">
  <path id="svg_1" d="m21.70927,169.11823l182.34292,-75.12841c17.99952,-7.82588 79.04135,-32.86868 79.04135,-32.86868s28.17316,-10.95623 25.82539,15.65175c-0.78259,10.95623 -7.04329,49.30302 -13.30399,90.78017l-19.56469,122.86626s-1.56518,17.99952 -14.86917,21.12987c-13.30399,3.13035 -35.21644,-10.95623 -39.12938,-14.08658c-3.13035,-2.34776 -58.69407,-37.56421 -79.04135,-54.78113c-5.47811,-4.69553 -11.73881,-14.08658 0.78259,-25.0428c28.17316,-25.82539 61.82442,-57.91149 82.1717,-78.25876c9.39105,-9.39105 18.7821,-31.30351 -20.34728,-4.69553l-110.34486,74.34583s-12.5214,7.82588 -35.99903,0.78259c-23.47763,-7.04329 -50.8682,-16.43434 -50.8682,-16.43434s-18.7821,-11.73881 13.30399,-24.26022l0.00001,-0.00002z"/>
</svg>