<?xml version="1.0" encoding="iso-8859-1"?>
<!-- Generator: Adobe Illustrator 19.0.0, SVG Export Plug-In . SVG Version: 6.00 Build 0)  -->
<svg xmlns="http://www.w3.org/2000/svg" xmlns:xlink="http://www.w3.org/1999/xlink" version="1.1" id="Capa_1" x="0px" y="0px" viewBox="0 0 511.986 511.986" style="enable-background:new 0 0 511.986 511.986;" xml:space="preserve" width="512px" height="512px">
<g>
	<g>
		<rect x="113.795" y="404.819" width="202.14" height="43.17" fill="#FFFFFF"/>
	</g>
</g>
<g>
	<g>
		<rect x="392.386" y="2.202" transform="matrix(0.9853 -0.171 0.171 0.9853 -11.5634 72.3084)" width="43.171" height="202.156" fill="#FFFFFF"/>
	</g>
</g>
<g>
	<g>
		
			<rect x="196.692" y="256.148" transform="matrix(0.0918 -0.9958 0.9958 0.0918 -157.4773 541.7882)" width="43.171" height="202.155" fill="#FFFFFF"/>
	</g>
</g>
<g>
	<g>
		
			<rect x="209.288" y="182.308" transform="matrix(0.2596 -0.9657 0.9657 0.2596 -102.7236 432.7687)" width="43.169" height="202.137" fill="#FFFFFF"/>
	</g>
</g>
<g>
	<g>
		
			<rect x="239.944" y="105.588" transform="matrix(0.508 -0.8613 0.8613 0.508 -49.3292 326.9308)" width="43.168" height="202.12" fill="#FFFFFF"/>
	</g>
</g>
<g>
	<g>
		
			<rect x="305.93" y="36.73" transform="matrix(0.8262 -0.5634 0.5634 0.8262 -20.7134 208.4716)" width="43.171" height="202.153" fill="#FFFFFF"/>
	</g>
</g>
<g>
	<g>
		<polygon points="347.463,319.986 347.463,479.986 91.463,479.986 91.463,319.986 59.463,319.986 59.463,511.986 379.463,511.986     379.463,319.986   " fill="#FFFFFF"/>
	</g>
</g>
<g>
</g>
<g>
</g>
<g>
</g>
<g>
</g>
<g>
</g>
<g>
</g>
<g>
</g>
<g>
</g>
<g>
</g>
<g>
</g>
<g>
</g>
<g>
</g>
<g>
</g>
<g>
</g>
<g>
</g>
</svg>
